# xmcd CD database file generated by Grip 3.2.0
# 
# Track frame offsets:
#       150
#       16048
#       34175
#       50077
# 
# Disc length: 905 seconds
# 
# Revision: 2
# Processed by: cddbd v1.5.2PL0 Copyright (c) Steve Scherf et al.
# Submitted via: Grip 3.2.0
# 
DISCID=29038704
DTITLE=榊原ゆい - 混沌のオラトリオ 
DYEAR=2010
DGENRE=Game
TTITLE0=混沌のオラトリオ
TTITLE1=BLUE BIRD シンドローム
TTITLE2=混沌のオラトリオ [off vocal]
TTITLE3=BLUE BIRD シンドローム [off vocal]
EXTD=YEAR: 2003
EXTT0=
EXTT1=
EXTT2=
EXTT3=
PLAYORDER=
